<svg id="Capa_1" enable-background="new 0 0 512 512" height="512" viewBox="0 0 512 512" width="512" xmlns="http://www.w3.org/2000/svg"><g><path d="m58.598 279.712 24.257 17.637 23.145-31.841 23.145 31.841 24.257-17.637-23.131-31.824 37.428-12.151-9.258-28.535-37.441 12.155v-39.357h-30v39.357l-37.441-12.155-9.258 28.535 37.428 12.151z"/><path d="m208.598 189.712 24.257 17.637 23.145-31.841 23.145 31.841 24.257-17.637-23.131-31.824 37.428-12.151-9.258-28.535-37.441 12.155v-39.357h-30v39.357l-37.441-12.155-9.258 28.535 37.428 12.151z"/><path d="m358.598 99.712 24.257 17.637 23.145-31.841 23.145 31.841 24.257-17.637-23.131-31.824 37.428-12.151-9.258-28.535-37.441 12.155v-39.357h-30v39.357l-37.441-12.155-9.258 28.535 37.428 12.151z"/><path d="m481 482h-30v-332h-90v332h-60v-242h-90v242h-60v-152h-90v152h-30v30h450z"/></g></svg>